HIERARCHY
ROOT Hips
{
    OFFSET   0.000000   0.000000   0.000000
    CHANNELS 6 Xposition Yposition Zposition Zrotation Xrotation Yrotation
    JOINT Chest
    {
        OFFSET   0.000000   8.007230   0.000000
        CHANNELS 3 Zrotation Xrotation Yrotation
        JOINT Chest2
        {
            OFFSET   0.000000  22.077100   0.000000
            CHANNELS 3 Zrotation Xrotation Yrotation
            JOINT Neck
            {
                OFFSET   0.000000  23.255100   0.000000
                CHANNELS 3 Zrotation Xrotation Yrotation
                JOINT Head
                {
                    OFFSET   0.000000  14.370100   1.956600
                    CHANNELS 3 Zrotation Xrotation Yrotation
                    End Site
                    {
                        OFFSET   0.000000  19.566000   0.000000
                    }
                }
            }
            JOINT LeftCollar
            {
                OFFSET   3.911900  19.017000  -0.467063
                CHANNELS 3 Zrotation Xrotation Yrotation
                JOINT LeftShoulder
                {
                    OFFSET  10.383700   0.000000   0.000000
                    CHANNELS 3 Zrotation Xrotation Yrotation
                    JOINT LeftElbow
                    {
                        OFFSET  26.662100   0.001193   0.000980
                        CHANNELS 3 Zrotation Xrotation Yrotation
                        JOINT LeftWrist
                        {
                            OFFSET  28.869000  -0.000059  -0.000082
                            CHANNELS 3 Zrotation Xrotation Yrotation
                            JOINT LeftFinger0
                            {
                                OFFSET   2.044650  -2.323450   3.252850
                                CHANNELS 3 Zrotation Xrotation Yrotation
                                JOINT LeftFinger01
                                {
                                    OFFSET   3.088130   0.000000   0.000000
                                    CHANNELS 3 Zrotation Xrotation Yrotation
                                    JOINT LeftFinger02
                                    {
                                        OFFSET   2.639460   0.000000   0.000000
                                        CHANNELS 3 Zrotation Xrotation Yrotation
                                        End Site
                                        {
                                            OFFSET   2.582190   0.000000   0.000000
                                        }
                                    }
                                }
                            }
                            JOINT LeftFinger1
                            {
                                OFFSET   8.364480   0.000000   3.252850
                                CHANNELS 3 Zrotation Xrotation Yrotation
                                JOINT LeftFinger11
                                {
                                    OFFSET   4.646930   0.000000   0.000000
                                    CHANNELS 3 Zrotation Xrotation Yrotation
                                    JOINT LeftFinger12
                                    {
                                        OFFSET   2.323470   0.000000   0.000000
                                        CHANNELS 3 Zrotation Xrotation Yrotation
                                        End Site
                                        {
                                            OFFSET   2.273050   0.000000   0.000000
                                        }
                                    }
                                }
                            }
                            JOINT LeftFinger2
                            {
                                OFFSET   8.364490   0.000016   1.078090
                                CHANNELS 3 Zrotation Xrotation Yrotation
                                JOINT LeftFinger21
                                {
                                    OFFSET   5.111610   0.000000   0.000000
                                    CHANNELS 3 Zrotation Xrotation Yrotation
                                    JOINT LeftFinger22
                                    {
                                        OFFSET   2.788150   0.000016   0.000000
                                        CHANNELS 3 Zrotation Xrotation Yrotation
                                        End Site
                                        {
                                            OFFSET   2.727660   0.000000   0.000000
                                        }
                                    }
                                }
                            }
                            JOINT LeftFinger3
                            {
                                OFFSET   7.899780   0.000015  -1.078090
                                CHANNELS 3 Zrotation Xrotation Yrotation
                                JOINT LeftFinger31
                                {
                                    OFFSET   4.646930   0.000000   0.000000
                                    CHANNELS 3 Zrotation Xrotation Yrotation
                                    JOINT LeftFinger32
                                    {
                                        OFFSET   2.323470   0.000000   0.000000
                                        CHANNELS 3 Zrotation Xrotation Yrotation
                                        End Site
                                        {
                                            OFFSET   2.273050   0.000000   0.000000
                                        }
                                    }
                                }
                            }
                            JOINT LeftFinger4
                            {
                                OFFSET   7.435090   0.000000  -3.252850
                                CHANNELS 3 Zrotation Xrotation Yrotation
                                JOINT LeftFinger41
                                {
                                    OFFSET   3.717550   0.000000   0.000000
                                    CHANNELS 3 Zrotation Xrotation Yrotation
                                    JOINT LeftFinger42
                                    {
                                        OFFSET   1.858770   0.000000   0.000000
                                        CHANNELS 3 Zrotation Xrotation Yrotation
                                        End Site
                                        {
                                            OFFSET   1.818440   0.000000   0.000000
                                        }
                                    }
                                }
                            }
                        }
                    }
                }
            }
            JOINT RightCollar
            {
                OFFSET  -3.911910  19.017000  -0.467062
                CHANNELS 3 Zrotation Xrotation Yrotation
                JOINT RightShoulder
                {
                    OFFSET -10.383700   0.000014   0.000000
                    CHANNELS 3 Zrotation Xrotation Yrotation
                    JOINT RightElbow
                    {
                        OFFSET -26.662100   0.001225   0.001091
                        CHANNELS 3 Zrotation Xrotation Yrotation
                        JOINT RightWrist
                        {
                            OFFSET -28.869000  -0.000020  -0.000085
                            CHANNELS 3 Zrotation Xrotation Yrotation
                            JOINT RightFinger0
                            {
                                OFFSET  -2.044650  -2.323490   3.252850
                                CHANNELS 3 Zrotation Xrotation Yrotation
                                JOINT RightFinger01
                                {
                                    OFFSET  -3.088130   0.000000   0.000000
                                    CHANNELS 3 Zrotation Xrotation Yrotation
                                    JOINT RightFinger02
                                    {
                                        OFFSET  -2.639460   0.000000   0.000000
                                        CHANNELS 3 Zrotation Xrotation Yrotation
                                        End Site
                                        {
                                            OFFSET  -2.582190   0.000000   0.000000
                                        }
                                    }
                                }
                            }
                            JOINT RightFinger1
                            {
                                OFFSET  -8.364480   0.000000   3.252850
                                CHANNELS 3 Zrotation Xrotation Yrotation
                                JOINT RightFinger11
                                {
                                    OFFSET  -4.646930   0.000000   0.000000
                                    CHANNELS 3 Zrotation Xrotation Yrotation
                                    JOINT RightFinger12
                                    {
                                        OFFSET  -2.323470   0.000000   0.000000
                                        CHANNELS 3 Zrotation Xrotation Yrotation
                                        End Site
                                        {
                                            OFFSET  -2.273050   0.000000   0.000000
                                        }
                                    }
                                }
                            }
                            JOINT RightFinger2
                            {
                                OFFSET  -8.364480   0.000000   1.078090
                                CHANNELS 3 Zrotation Xrotation Yrotation
                                JOINT RightFinger21
                                {
                                    OFFSET  -5.111620   0.000000   0.000000
                                    CHANNELS 3 Zrotation Xrotation Yrotation
                                    JOINT RightFinger22
                                    {
                                        OFFSET  -2.788160   0.000000   0.000000
                                        CHANNELS 3 Zrotation Xrotation Yrotation
                                        End Site
                                        {
                                            OFFSET  -2.727660   0.000000   0.000000
                                        }
                                    }
                                }
                            }
                            JOINT RightFinger3
                            {
                                OFFSET  -7.899780   0.000000  -1.078090
                                CHANNELS 3 Zrotation Xrotation Yrotation
                                JOINT RightFinger31
                                {
                                    OFFSET  -4.646930   0.000000   0.000000
                                    CHANNELS 3 Zrotation Xrotation Yrotation
                                    JOINT RightFinger32
                                    {
                                        OFFSET  -2.323470   0.000000   0.000000
                                        CHANNELS 3 Zrotation Xrotation Yrotation
                                        End Site
                                        {
                                            OFFSET  -2.273050   0.000000   0.000000
                                        }
                                    }
                                }
                            }
                            JOINT RightFinger4
                            {
                                OFFSET  -7.435090   0.000000  -3.252850
                                CHANNELS 3 Zrotation Xrotation Yrotation
                                JOINT RightFinger41
                                {
                                    OFFSET  -3.717550   0.000000   0.000000
                                    CHANNELS 3 Zrotation Xrotation Yrotation
                                    JOINT RightFinger42
                                    {
                                        OFFSET  -1.858760   0.000000   0.000000
                                        CHANNELS 3 Zrotation Xrotation Yrotation
                                        End Site
                                        {
                                            OFFSET  -1.818440   0.000000   0.000000
                                        }
                                    }
                                }
                            }
                        }
                    }
                }
            }
        }
    }
    JOINT LeftHip
    {
        OFFSET   9.783030   0.000000   0.000000
        CHANNELS 3 Zrotation Xrotation Yrotation
        JOINT LeftKnee
        {
            OFFSET   0.000063 -41.789100   0.000608
            CHANNELS 3 Zrotation Xrotation Yrotation
            JOINT LeftAnkle
            {
                OFFSET   0.000048 -41.133200  -0.000184
                CHANNELS 3 Zrotation Xrotation Yrotation
                JOINT LeftToe
                {
                    OFFSET   0.000000  -6.358960  14.674500
                    CHANNELS 3 Zrotation Xrotation Yrotation
                    End Site
                    {
                        OFFSET   0.000000   0.000000   3.913200
                    }
                }
            }
        }
    }
    JOINT RightHip
    {
        OFFSET  -9.783030   0.000000   0.000000
        CHANNELS 3 Zrotation Xrotation Yrotation
        JOINT RightKnee
        {
            OFFSET   0.000071 -41.789100   0.001239
            CHANNELS 3 Zrotation Xrotation Yrotation
            JOINT RightAnkle
            {
                OFFSET   0.000037 -41.133200  -0.000166
                CHANNELS 3 Zrotation Xrotation Yrotation
                JOINT RightToe
                {
                    OFFSET   0.000000  -6.358960  14.674500
                    CHANNELS 3 Zrotation Xrotation Yrotation
                    End Site
                    {
                        OFFSET   0.000000   0.000000   3.913200
                    }
                }
            }
        }
    }
}
MOTION
Frames: 4
Frame Time:   0.016667
  0.723054  89.992600   0.023576  -0.427524  -1.618650  -4.814900   0.042769   1.785220  -1.052380   0.118440   3.569350  -2.107620   1.609050   1.449020  -0.037315   2.648340   2.931320   6.820560  -4.560020  -0.730422   6.537190 -73.436000  18.086300   3.334090  -3.641960  -4.549930 -13.902200  13.863200  -4.496410   8.783580  36.070400  22.490700 -58.934900 -27.642200  -0.001099   0.011712  -8.806170   0.003178   0.007053 -25.356900   7.692720 -15.768800 -21.619800  -0.002361  -0.004882 -15.133900   0.000798  -0.004465 -27.908300   3.264630  -6.156170 -32.559200  -0.006111  -0.000783 -21.684400   0.002773  -0.000724 -25.222300   1.555150  -3.297470 -25.267000   0.002196  -0.006447 -16.827800  -0.003195  -0.005249 -24.027900  -0.853467   1.929060 -36.063300  -0.005993   0.002252 -24.018200  -0.001034  -0.000998  10.098400   2.749400   7.364130  69.959300   5.709930  -3.170810   3.226010  -7.907580   8.507100 -16.941100 -16.925600   2.216570 -39.068300  35.891400  73.156200  30.820600   0.000083   0.000000  10.410300   0.001032  -0.001156  25.570200   1.384010   2.889680  20.949600  -0.008605   0.005015  14.664800  -0.004113   0.008096  24.566500   0.065894   0.131479  24.566600  -0.001796   0.015517  16.361400  -0.006638   0.014505  24.095700  -3.444550  -7.655610  24.326200  -0.002182   0.000324  16.201300  -0.000129   0.011697  30.943600  -4.341310  -7.190220  46.825100  -0.005087   0.000987  31.185500   0.007314   0.012426   1.566090   1.750940   0.168421  -0.007169   2.455590  14.711700  -5.892230  -4.298160   5.366780   0.000000   0.000000   0.000000   0.587945   1.758580  -8.130910   0.057476   1.661230  -5.949940  -8.535250   1.081660   2.188440   0.000000   0.000000   0.000000
  0.723052  89.992400   0.007915  -0.428280  -1.627400  -4.819290   0.042842   1.790650  -1.052380   0.118681   3.580220  -2.107630   1.609160   1.448820  -0.037301   2.648150   2.930690   6.836150  -4.558280  -0.743061   6.550940 -73.444600  18.123000   3.333910  -3.644970  -4.564320 -13.895400  13.868900  -4.496050   8.777940  36.066800  22.468800 -58.911400 -27.640300  -0.001098   0.011714  -8.806040   0.003174   0.007042 -25.365200   7.693990 -15.768800 -21.626600  -0.002359  -0.004878 -15.138700   0.000799  -0.004464 -27.914000   3.264690  -6.146540 -32.598300  -0.006106  -0.000777 -21.710400   0.002774  -0.000720 -25.236700   1.549880  -3.284040 -25.281100   0.002198  -0.006443 -16.837100  -0.003192  -0.005250 -24.037800  -0.853504   1.929060 -36.078300  -0.005992   0.002257 -24.028100  -0.001031  -0.000995  10.098300   2.743670   7.375300  69.959100   5.720650  -3.163940   3.218880  -7.926570   8.503810 -16.956100 -16.935900   2.221130 -39.059200  35.878500  73.168000  30.816300   0.000084   0.000000  10.408100   0.001039  -0.001142  25.597300   1.401970   2.922670  20.972600  -0.008598   0.005013  14.680800  -0.004115   0.008095  24.584100   0.065895   0.137644  24.584200  -0.001795   0.015517  16.373100  -0.006638   0.014508  24.111400  -3.444620  -7.646490  24.341700  -0.002173   0.000324  16.211600  -0.000110   0.011695  30.960800  -4.337650  -7.181190  46.849900  -0.005083   0.000986  31.202000   0.007311   0.012427   1.565870   1.748780   0.168435  -0.008408   2.457510  14.705000  -5.892220  -4.289830   5.373960  -0.000000   0.000000   0.000000   0.587644   1.725510  -8.124720   0.052940   1.692140  -5.971790  -8.541060   1.087950   2.208550   0.000000   0.000000  -0.000000
  0.723047  89.991900  -0.018408  -0.429938  -1.645640  -4.829650   0.042981   1.801880  -1.052340   0.119170   3.602670  -2.107580   1.609320   1.448600  -0.037288   2.648010   2.930020   6.859470  -4.556070  -0.758948   6.571900 -73.457600  18.182900   3.328880  -3.650550  -4.589070 -13.888800  13.874400  -4.495710   8.769400  36.063200  22.446800 -58.888000 -27.636900  -0.001097   0.011726  -8.805850   0.003171   0.007031 -25.379800   7.698820 -15.769000 -21.638900  -0.002352  -0.004872 -15.147200   0.000803  -0.004464 -27.922300   3.264770  -6.133420 -32.655500  -0.006092  -0.000763 -21.748500   0.002779  -0.000710 -25.257900   1.542740  -3.265990 -25.301900   0.002204  -0.006438 -16.851000  -0.003184  -0.005251 -24.052100  -0.853541   1.929050 -36.099500  -0.005990   0.002271 -24.042200  -0.001023  -0.000983  10.098600   2.733650   7.390790  69.957800   5.745730  -3.146090   3.206330  -7.960500   8.500830 -16.979100 -16.952000   2.232190 -39.045800  35.867600  73.184700  30.812100   0.000087  -0.000000  10.406000   0.001050  -0.001128  25.638100   1.419920   2.955660  21.006600  -0.008574   0.005008  14.704600  -0.004120   0.008089  24.614500   0.065897   0.143809  24.614600  -0.001790   0.015521  16.393300  -0.006635   0.014517  24.136600  -3.444700  -7.637380  24.366600  -0.002147   0.000324  16.228100  -0.000064   0.011693  30.986800  -4.334000  -7.172160  46.887800  -0.005074   0.000982  31.227300   0.007301   0.012435   1.565580   1.746630   0.168449  -0.010348   2.462110  14.698400  -5.892160  -4.276670   5.386410  -0.000000   0.000000  -0.000000   0.587189   1.692460  -8.113100   0.049679   1.732150  -6.003320  -8.549670   1.098010   2.238890   0.000000   0.000000   0.000000
  0.723038  89.991000  -0.039792  -0.432087  -1.667740  -4.845380   0.043163   1.815660  -1.051570   0.119826   3.630220  -2.106080   1.609390   1.449350  -0.037331   2.648020   2.931430   6.874760  -4.555750  -0.762081   6.587010 -73.464500  18.228000   3.313490  -3.656110  -4.612020 -13.892500  13.877600  -4.519550   8.764870  36.061400  22.456400 -58.916900 -27.634600  -0.001107   0.011752  -8.805770   0.003174   0.007042 -25.392800   7.709590 -15.780900 -21.651400  -0.002343  -0.004868 -15.155900   0.000812  -0.004464 -27.926100   3.265730  -6.129720 -32.685200  -0.006066  -0.000741 -21.768300   0.002786  -0.000695 -25.270400   1.540790  -3.260600 -25.314400   0.002217  -0.006438 -16.859300  -0.003171  -0.005250 -24.059200  -0.853536   1.921610 -36.109600  -0.005986   0.002290 -24.049300  -0.001014  -0.000959  10.100600   2.726030   7.396920  69.952700   5.777990  -3.118470   3.196300  -7.991080   8.510180 -16.993500 -16.964900   2.249540 -39.043700  35.876900  73.196200  30.820200   0.000103  -0.000000  10.410100   0.001053  -0.001157  25.659100   1.415550   2.944690  21.023500  -0.008530   0.005002  14.716500  -0.004128   0.008078  24.641200   0.059478   0.129718  24.641200  -0.001781   0.015533  16.411000  -0.006628   0.014532  24.152600  -3.450790  -7.646700  24.383200  -0.002104   0.000321  16.239200   0.000004   0.011692  30.999300  -4.340750  -7.180930  46.907500  -0.005062   0.000973  31.240400   0.007286   0.012455   1.565640   1.751080   0.163791  -0.012264   2.467840  14.708600  -5.892130  -4.267230   5.397070  -0.000000   0.000000   0.000000   0.584182   1.700190  -8.100220   0.052219   1.738190  -6.017990  -8.553890   1.105680   2.256430   0.000000   0.000000   0.000000
